<svg viewBox="0 0 512 512" xmlns="http://www.w3.org/2000/svg"><path d="M471.95 253.05c0 120.9-98.01 218.9-218.9 218.9-120.9 0-218.9-98.01-218.9-218.9 0-120.9 98.01-218.9 218.9-218.9 120.9 0 218.9 98.01 218.9 218.9" fill="#ef6a47" fill-rule="evenodd"/><path d="M198.56 120.59c-6.178 0-11.589.716-16.25 2.125-4.553 1.409-8.738 2.937-12.531 4.563.217 2.385.71 4.693 1.469 6.969.867 2.276 1.727 4.52 2.594 6.688.175-.079.356-.141.531-.219.157.399.311.824.469 1.219.174-.079.357-.141.531-.219.157.399.311.824.469 1.219.174-.079.357-.141.531-.219.157.399.311.824.469 1.219.166-.075.334-.145.5-.219.154.39.314.802.469 1.188.173-.078.357-.141.531-.219.157.399.311.824.469 1.219.173-.078.357-.141.531-.219.157.399.311.824.469 1.219.175-.079.356-.141.531-.219.157.399.311.824.469 1.219.174-.079.357-.141.531-.219.157.399.311.824.469 1.219.174-.079.357-.141.531-.219.157.399.311.824.469 1.219.166-.075.334-.145.5-.219.154.39.314.802.469 1.188.173-.078.357-.141.531-.219.157.399.311.824.469 1.219.173-.078.357-.141.531-.219.157.399.311.824.469 1.219.175-.079.356-.141.531-.219.157.399.311.824.469 1.219.174-.079.357-.141.531-.219.157.399.311.824.469 1.219.174-.079.357-.141.531-.219.157.399.311.824.469 1.219.166-.075.334-.145.5-.219.154.39.314.802.469 1.188.173-.078.357-.141.531-.219.157.399.311.824.469 1.219.173-.078.357-.141.531-.219.157.399.311.824.469 1.219.175-.079.356-.141.531-.219.157.399.311.824.469 1.219.175-.079.356-.141.531-.219.157.399.311.824.469 1.219.174-.079.357-.141.531-.219.157.399.311.824.469 1.219.166-.075.334-.145.5-.219.155.392.314.8.469 1.188.173-.078.357-.141.531-.219.157.399.311.824.469 1.219.173-.078.357-.141.531-.219.157.399.311.824.469 1.219.175-.079.356-.141.531-.219.157.399.311.824.469 1.219.175-.079.356-.141.531-.219.157.399.311.824.469 1.219.174-.079.357-.141.531-.219.157.399.311.824.469 1.219.174-.079.357-.141.531-.219.157.399.311.824.469 1.219.166-.075.334-.145.5-.219.154.39.314.802.469 1.188.173-.078.357-.141.531-.219.157.399.311.824.469 1.219.173-.078.357-.141.531-.219.157.399.311.824.469 1.219.175-.079.356-.141.531-.219.157.399.311.824.469 1.219.174-.079.357-.141.531-.219.157.399.311.824.469 1.219.174-.079.357-.141.531-.219.157.399.311.824.469 1.219.166-.075.334-.145.5-.219.146.369.292.76.438 1.125a94.933 94.933 0 0 1-2.094 2.625 868.132 868.132 0 0 1-7.813 9.438l-31.875 37.25.969 2.094h.531l.469 1h.531l.469 1h.531l.469 1h.531l.438.969h.531l.469 1h.531l.469 1h.531c.231.5.469 1 .469 1h.531c.231.5.469 1 .469 1h.531c.231.5.469 1 .469 1h.531c.222.479.438.969.438.969h.531c.231.5.469 1 .469 1h.531c.231.5.469 1 .469 1h.531c.231.5.469 1 .469 1h.531c.231.5.469 1 .469 1h.531c.231.5.469 1 .469 1h.531c.222.479.438.969.438.969h.531c.231.5.469 1 .469 1h.531c.231.5.469 1 .469 1h.531c.231.5.469 1 .469 1h.531c.231.5.469 1 .469 1h.531c.231.5.469 1 .469 1h.531c.222.479.438.969.438.969h.531c.231.5.469 1 .469 1h.531c.231.5.469 1 .469 1h.531c.231.5.469 1 .469 1h.531c.231.5.469 1 .469 1h.531c.231.5.469 1 .469 1h.531c.231.5.469 1 .469 1h.531c.222.479.438.969.438.969h.531c.231.5.469 1 .469 1h.531c.231.5.469 1 .469 1h.531c.231.5.469 1 .469 1h.531c.231.5.469 1 .469 1h.531c.231.5.469 1 .469 1h.531c.221.479.438.969.438.969h.531c.231.499.469 1 .469 1h.531c.231.499.469 1 .469 1h.531c.231.499.469 1 .469 1h.531c.231.499.469 1 .469 1h.531c.231.499.469 1 .469 1h.531c.221.478.438.969.438.969h.531c.231.499.469 1 .469 1h.531c.231.499.469 1 .469 1h.531c.231.499.469 1 .469 1h.531c.231.499.469 1 .469 1h.531c.231.499.469 1 .469 1h.531c.196.423.353.729.406.844a22.467 22.467 0 0 0-1.438-.188l-47.625 93.31 1.313 1.781h.25l.75 1h.25l.719.969.031.031h.25l.719.969.031.031h.281l.688.938v.031h.25l.719.969.031.031h.281l.688.938.031.063h.25l.688.938.063.063h.281l.656.906.063.094h.281l.656.906.063.094h.25l.656.906.063.063h.281l.656.906.063.094h.281l.656.906.063.094h.25l.656.875.094.125h.25l.656.875.094.125h.25l.625.844.125.156h.25l.625.844.094.125h.281l.625.844.094.156h.25l.625.844.125.156h.25l.625.844.125.156h.281l.594.813.125.188h.25l.594.813.156.188h.25l.594.781.125.188h.281l.594.813.125.188h.281l.563.781.156.219h.281l.563.781.156.219h.25l.563.75.188.25h.25l.563.75.188.25h.25l.563.75.188.25h.25l.531.719.188.25h.25l.563.75.188.25h.281l.531.719.188.281h.25l.531.719.219.281h.281l.5.688.219.313h.25l.5.688.25.313h.25l.5.688.219.281h.281l.5.688.219.313h.25l.5.688.25.313h.25l.5.656.25.344h.25l.5.656.25.344h.25l.469.625.281.375h.25l.469.625.25.344h.281l.469.625.25.375h.25l.469.625.281.375h.25l.469.625.281.375h.25l.438.594.313.406h.25l.438.594.313.406h.281l.406.563.313.438h.25l.406.563.313.406h.281l.406.563.313.438h.281l.406.563.313.438h.25l.406.531.344.469h.25l.406.531.344.469h.25l.375.531.375.469h.25l.375.5.344.469h.25l.406.531.344.469h.25l.375.5.375.5h.25l.375.5.375.5h.281l.344.469.375.531h.25l.344.469.406.531h.25l.344.438.375.531h.281l.344.469.375.531h.25l.344.469.406.531h.281l.313.438.406.563h.25l.313.438.438.563h.25l.313.406.438.594h.25l.313.406.406.563h.25l.313.406.438.594h.25l.313.406.438.594h.281l.281.375.438.625h.25l.281.375.469.625h.25l.281.375.469.625h.25l.25.344.5.656h.25l.25.344.469.625h.281l.25.344.469.656h.25l.25.344.5.656h.281l.219.313.5.688h.281l.219.313.5.688h.25l.219.281.531.719h.25l.219.281.5.688h.281l.219.313.5.688h.25l.219.281.531.719h.25l.219.281.531.719h.25l.188.25.563.75h.25l.188.25.563.75h.281l.156.219.531.75h.25l.188.25.563.75h.281l.156.219.563.781h.281l.156.219.563.781h.25l.156.219.594.781h.281l.125.188.594.813h.281c.041.055.125.187.125.188l.594.813h.25l.125.156.594.813h.281l.125.188.594.813h.25l.125.156.625.844h.25l.125.156.625.844h.281l.094.125.625.875h.25l.094.125.656.875h.25l.094.125.625.844h.281l.094.125.625.875h.25l.094.125.656.875h.281l.063.094.656.906h.25l.063.094.688.906h.281l.031.063.688.938h.281l.031.063.094.125c68.61-5.161 128.39-41.941 164.81-95.81a12.869 12.869 0 0 0-1.156-1.156 12.538 12.538 0 0 0-1.031-1.031 12.77 12.77 0 0 0-.938-.938 12.415 12.415 0 0 0-1-1c-.019-.022-.043-.041-.063-.063.025-.045.069-.08.094-.125.085.08.162.174.25.25.063.062.124.126.188.188.029.033.064.062.094.094.006.005.026-.005.031 0 .165.173.331.331.5.5.059.054.096.135.156.188.068.067.15.121.219.188.025.028.037.066.063.094.027.026.067.037.094.063.106.111.205.235.313.344.029.032.064.062.094.094l.219.219c.241.259.501.501.75.75.045.041.079.085.125.125.105.104.206.211.313.313.163.172.333.332.5.5.055.051.1.107.156.156l.125.125c20.253-29.998 33.26-65.27 36.531-103.34a9.478 9.478 0 0 0-.75-.75 11.177 11.177 0 0 0-1.031-1 11.468 11.468 0 0 0-1-1.031 11.508 11.508 0 0 0-1-1 11.602 11.602 0 0 0-1-1.031c-.318-.362-.675-.682-1.031-1-.005-.006.005-.026 0-.031-.039-.035-.086-.06-.125-.094-.278-.307-.569-.6-.875-.875-.015-.017-.017-.046-.031-.063-.05-.044-.105-.081-.156-.125-.265-.288-.523-.584-.813-.844a11.982 11.982 0 0 0-1.063-1.063 12.656 12.656 0 0 0-.969-.969c-.317-.361-.648-.68-1-1a12.925 12.925 0 0 0-1-1 13.17 13.17 0 0 0-1-1.031 13.391 13.391 0 0 0-1.219-1.188c-.264-.289-.527-.581-.813-.844-.025-.029-.037-.065-.063-.094-.028-.025-.066-.038-.094-.063a13.713 13.713 0 0 0-.844-.844c-.029-.033-.065-.061-.094-.094-.032-.029-.062-.065-.094-.094-.263-.289-.559-.549-.844-.813-.03-.034-.064-.06-.094-.094-.033-.03-.061-.064-.094-.094-.267-.292-.524-.577-.813-.844-.03-.034-.064-.06-.094-.094-.032-.029-.061-.065-.094-.094-.261-.286-.53-.55-.813-.813-.019-.022-.043-.041-.063-.063-.055-.05-.101-.107-.156-.156a14.75 14.75 0 0 0-.781-.781c-.053-.06-.102-.128-.156-.188-.027-.025-.066-.038-.094-.063a14.75 14.75 0 0 0-.781-.781c-.025-.029-.037-.065-.063-.094-.059-.054-.128-.103-.188-.156-.337-.365-.661-.735-1.031-1.063-.23-.248-.474-.489-.719-.719-.045-.051-.079-.106-.125-.156-.049-.045-.106-.081-.156-.125-.23-.248-.474-.488-.719-.719-.048-.055-.108-.102-.156-.156-.053-.048-.103-.109-.156-.156-.225-.242-.479-.462-.719-.688a15.227 15.227 0 0 0-1-1.031c-.069-.078-.149-.142-.219-.219-.033-.03-.06-.064-.094-.094a15.942 15.942 0 0 0-.688-.688c-.039-.044-.086-.081-.125-.125-.076-.07-.142-.15-.219-.219a16.532 16.532 0 0 0-.688-.688c-.054-.062-.101-.127-.156-.188-.059-.054-.127-.103-.188-.156-.274-.293-.55-.574-.844-.844-.384-.422-.764-.842-1.188-1.219a16.015 16.015 0 0 0-.625-.625c-.065-.073-.122-.147-.188-.219-.07-.065-.147-.124-.219-.188-.329-.348-.675-.715-1.031-1.031-.193-.204-.391-.4-.594-.594a16.262 16.262 0 0 0-1.438-1.438 15.731 15.731 0 0 0-.563-.563 17.388 17.388 0 0 0-1.25-1.281c-.325-.355-.681-.675-1.031-1-.246-.268-.489-.53-.75-.781-.078-.089-.17-.163-.25-.25-.085-.079-.163-.173-.25-.25a18.133 18.133 0 0 0-.5-.5 18.153 18.153 0 0 0-1.563-1.563c-.153-.16-.31-.315-.469-.469-.41-.466-.83-.894-1.281-1.313-.356-.387-.74-.741-1.125-1.094-.297-.318-.59-.643-.906-.938-.325-.353-.682-.675-1.031-1-.226-.245-.45-.487-.688-.719-.098-.111-.213-.204-.313-.313-.106-.099-.204-.216-.313-.313-.245-.254-.492-.511-.75-.75a19.36 19.36 0 0 0-1.313-1.313c-.113-.116-.228-.23-.344-.344-.311-.354-.667-.672-1-1a19.777 19.777 0 0 0-1.719-1.719c-.103-.107-.207-.208-.313-.313a20.065 20.065 0 0 0-1.375-1.406 20.04 20.04 0 0 0-1.375-1.375c-.339-.348-.67-.71-1.031-1.031-.082-.084-.167-.167-.25-.25a20.959 20.959 0 0 0-1.813-1.813c-.215-.219-.401-.447-.625-.656a20.95 20.95 0 0 0-1.406-1.375c-.062-.064-.125-.125-.188-.188-.317-.36-.663-.695-1-1.031a21.543 21.543 0 0 0-1.875-1.875c-.34-.345-.671-.711-1.031-1.031l-.125-.125a22.575 22.575 0 0 0-1.938-1.938l-.094-.094a22.139 22.139 0 0 0-1.469-1.5 23 23 0 0 0-1-1c-.33-.354-.681-.7-1.031-1.031-.33-.354-.65-.7-1-1.031a23.282 23.282 0 0 0-1.531-1.5c-.005-.006.005-.026 0-.031-.109-.11-.233-.205-.344-.313-.54-.59-1.094-1.19-1.688-1.719-.111-.111-.231-.203-.344-.313a23.174 23.174 0 0 0-1.188-1.219 24.18 24.18 0 0 0-1-1c-.33-.353-.682-.7-1.031-1.031a24.18 24.18 0 0 0-1-1c-.5-.535-.989-1.077-1.531-1.563-.166-.167-.33-.338-.5-.5-.363-.387-.74-.764-1.125-1.125-.297-.313-.595-.61-.906-.906a25.702 25.702 0 0 0-1.031-1.031c-.292-.311-.6-.612-.906-.906a24.976 24.976 0 0 0-1.25-1.25c-.281-.295-.55-.594-.844-.875a26.185 26.185 0 0 0-1.563-1.563c-.155-.156-.31-.317-.469-.469a26.639 26.639 0 0 0-1.063-1.063 25.486 25.486 0 0 0-1-1 26.522 26.522 0 0 0-1.125-1.125c-.26-.273-.511-.551-.781-.813a26.682 26.682 0 0 0-1.281-1.281c-.271-.284-.562-.542-.844-.813-.378-.403-.757-.81-1.156-1.188a27.09 27.09 0 0 0-1.031-1.031c-.294-.308-.6-.613-.906-.906a30.08 30.08 0 0 0-.875-.875 28.14 28.14 0 0 0-1.344-1.375c-.22-.229-.46-.436-.688-.656a28.68 28.68 0 0 0-1.438-1.438c-.074-.084-.144-.167-.219-.25l-.188-.188a28.68 28.68 0 0 0-1.438-1.438 28.638 28.638 0 0 0-1.031-1.031c-.294-.307-.6-.613-.906-.906a29.513 29.513 0 0 0-.969-.969 29.814 29.814 0 0 0-1.219-1.219c-.231-.241-.449-.486-.688-.719-.383-.41-.784-.801-1.188-1.188-.328-.346-.688-.671-1.031-1-.362-.382-.713-.764-1.094-1.125-.249-.261-.492-.53-.75-.781-.433-.464-.885-.91-1.344-1.344-.259-.269-.545-.523-.813-.781-.402-.426-.795-.849-1.219-1.25-.221-.229-.46-.434-.688-.656-.408-.437-.82-.871-1.25-1.281-.31-.325-.646-.627-.969-.938-.362-.381-.714-.764-1.094-1.125a31.198 31.198 0 0 0-.75-.75c-.458-.49-.921-.98-1.406-1.438a34.816 34.816 0 0 0-.719-.719 33.192 33.192 0 0 0-1.094-1.094 31.43 31.43 0 0 0-1-1 33.41 33.41 0 0 0-1.031-1.031c-.29-.306-.574-.613-.875-.906-.452-.48-.929-.925-1.406-1.375-.19-.195-.369-.404-.563-.594-.468-.5-.973-.97-1.469-1.438-.189-.195-.369-.404-.563-.594a33.362 33.362 0 0 0-1.219-1.219 33.192 33.192 0 0 0-1.094-1.094c-.307-.32-.62-.631-.938-.938-.285-.3-.58-.587-.875-.875-.441-.468-.879-.934-1.344-1.375-.241-.249-.502-.478-.75-.719-.381-.402-.758-.805-1.156-1.188-.31-.323-.616-.659-.938-.969-2.648-2.775-5.721-5.07-9.188-6.875-5.095-2.71-11.05-4.062-17.875-4.063-6.829 0-12.86 1.353-18.06 4.063-5.094 2.71-9.375 6.529-12.844 11.406-3.36 4.769-5.891 10.451-7.625 17.06a79.302 79.302 0 0 0-2.219 12.656c-.048-.046-.108-.08-.156-.125a24.554 24.554 0 0 0-.625-.625c-.034-.038-.059-.087-.094-.125-.123-.119-.249-.228-.375-.344a24.168 24.168 0 0 0-.531-.531c-.32-.35-.659-.669-1-1-.025-.027-.037-.066-.063-.094-.09-.086-.19-.165-.281-.25a22.543 22.543 0 0 0-.656-.656c-.025-.027-.037-.066-.063-.094-.09-.086-.19-.165-.281-.25a22.543 22.543 0 0 0-.656-.656c-.025-.027-.037-.066-.063-.094-.09-.086-.19-.165-.281-.25a21.666 21.666 0 0 0-.625-.625c-.034-.037-.06-.088-.094-.125-.09-.086-.19-.165-.281-.25a24.554 24.554 0 0 0-.625-.625c-.034-.038-.059-.087-.094-.125-.123-.119-.249-.228-.375-.344a24.168 24.168 0 0 0-.531-.531c-.32-.35-.659-.669-1-1-.025-.027-.037-.066-.063-.094-.09-.086-.19-.165-.281-.25a22.543 22.543 0 0 0-.656-.656c-.025-.027-.037-.066-.063-.094-.09-.086-.19-.165-.281-.25a22.543 22.543 0 0 0-.656-.656c-.025-.027-.037-.066-.063-.094-.069-.066-.149-.122-.219-.188a23.59 23.59 0 0 0-1.219-1.188c-.158-.163-.306-.342-.469-.5-.034-.038-.059-.087-.094-.125-.09-.086-.19-.165-.281-.25a23.02 23.02 0 0 0-.625-.625c-.315-.345-.664-.673-1-1-.32-.35-.659-.669-1-1-.025-.027-.037-.066-.063-.094-.09-.086-.19-.165-.281-.25a22.543 22.543 0 0 0-.656-.656c-.025-.027-.037-.066-.063-.094-.069-.066-.149-.122-.219-.188a23.59 23.59 0 0 0-1.219-1.188c-.158-.163-.306-.342-.469-.5-.034-.038-.059-.087-.094-.125-.09-.086-.19-.165-.281-.25a23.02 23.02 0 0 0-.625-.625c-.315-.345-.664-.673-1-1-.32-.35-.659-.669-1-1-.025-.027-.037-.066-.063-.094-.09-.086-.19-.165-.281-.25a22.543 22.543 0 0 0-.656-.656c-.025-.027-.037-.066-.063-.094-.069-.066-.149-.122-.219-.188a23.59 23.59 0 0 0-1.219-1.188c-.158-.163-.306-.342-.469-.5-.034-.037-.06-.088-.094-.125-.09-.086-.19-.165-.281-.25a24.554 24.554 0 0 0-.625-.625c-.034-.038-.059-.087-.094-.125-.123-.119-.249-.228-.375-.344a24.168 24.168 0 0 0-.531-.531c-.32-.35-.659-.669-1-1-.025-.027-.037-.066-.063-.094-.09-.086-.19-.165-.281-.25a22.543 22.543 0 0 0-.656-.656c-.025-.027-.037-.066-.063-.094-.09-.086-.19-.165-.281-.25a22.543 22.543 0 0 0-.656-.656c-.025-.027-.037-.066-.063-.094-.09-.086-.19-.165-.281-.25a21.666 21.666 0 0 0-.625-.625c-.034-.037-.06-.088-.094-.125-.09-.086-.19-.165-.281-.25a24.554 24.554 0 0 0-.625-.625c-.034-.038-.059-.087-.094-.125-.09-.086-.19-.165-.281-.25a23.02 23.02 0 0 0-.625-.625c-.32-.35-.659-.669-1-1-.025-.027-.037-.066-.063-.094-.09-.086-.19-.165-.281-.25a22.543 22.543 0 0 0-.656-.656c-.025-.027-.037-.066-.063-.094-.069-.066-.149-.122-.219-.188a24.303 24.303 0 0 0-3.156-2.813c-3.252-2.493-7.135-4.339-11.688-5.531-4.553-1.301-9.597-1.969-15.12-1.969" fill-opacity=".235"/><g fill-rule="evenodd"><path d="M256 1C115.17 1 1 115.17 1 256s114.17 255 255 255 255-114.17 255-255S396.83 1 256 1m8.827 44.931c120.9 0 218.9 98 218.9 218.9s-98 218.9-218.9 218.9-218.93-98-218.93-218.9 98.03-218.9 218.93-218.9" fill-opacity=".067"/><g fill-opacity=".129"><path d="M256 4.433c-138.94 0-251.57 112.63-251.57 251.57S117.06 507.573 256 507.573s251.57-112.63 251.57-251.57S394.94 4.433 256 4.433m5.885 38.556c120.9 0 218.9 98 218.9 218.9s-98 218.9-218.9 218.9-218.93-98-218.93-218.9 98.03-218.9 218.93-218.9"/><path d="M256 8.356c-136.77 0-247.64 110.87-247.64 247.64S119.23 503.636 256 503.636s247.64-110.87 247.64-247.64S392.77 8.356 256 8.356m2.942 31.691c120.9 0 218.9 98 218.9 218.9s-98 218.9-218.9 218.9-218.93-98-218.93-218.9 98.03-218.9 218.93-218.9"/></g><path d="M253.04 7.859c-135.42 0-245.19 109.78-245.19 245.19 0 135.42 109.78 245.19 245.19 245.19 135.42 0 245.19-109.78 245.19-245.19 0-135.42-109.78-245.19-245.19-245.19zm0 26.297c120.9 0 218.9 98 218.9 218.9s-98 218.9-218.9 218.9-218.93-98-218.93-218.9 98.03-218.9 218.93-218.9z" fill="#fff" stroke="#000" stroke-opacity=".31" stroke-width="4.904"/></g><text x="729.64" y="231.36"/><text x="1310.91" y="151.36"/><text x="239.33" y="-29.901"/><text x="1337.38" y="-246.37"/><text x="1918.65" y="-326.38"/><text x="1529.53" y="-798.78"/><text x="2110.79" y="-878.78"/><g letter-spacing="0" word-spacing="0"><text x="277.99" y="535.94"/><g fill="#fff" font-family="Aller" font-size="140.17"><text x="171.15" y="216.77" transform="translate(-40.943 -24.336) scale(1.1599)"><tspan x="171.15" y="216.77">20</tspan></text><text x="173.33" y="349.72" transform="translate(-40.943 -24.336) scale(1.1599)"><tspan x="173.33" y="349.72">48</tspan></text></g></g></svg>